<svg width="205" height="218" viewBox="0 0 205 218" fill="none" xmlns="http://www.w3.org/2000/svg">
<path fill-rule="evenodd" clip-rule="evenodd" d="M158.999 83.9075C156.421 87.6613 63.2952 140.418 54.8138 145.389C44.8058 151.206 30.7945 160.371 20.2098 164.97C23.5684 161.081 123.242 91.9224 136.133 82.5886C142.783 77.7864 150.314 74.5398 150.382 70.2111C150.382 67.8438 128.839 21.3436 126.024 15.8988C115.167 -5.27143 88.434 -5.33907 78.4599 15.9327L3.11131 178.497C-7.88057 202.305 12.0676 224.828 34.5603 216.002C41.956 213.093 53.1515 205.518 60.0044 201.494C68.6894 196.421 76.3565 192.058 85.2111 186.783L134.912 158.443C138.305 162.535 150.925 191.889 154.114 198.991C162.29 217.118 178.269 222.563 192.348 214.108C210.261 203.354 205.308 186.546 198.726 172.883L180.169 132.403C184.579 127.398 194.994 124.625 199.845 118.571C204.493 112.788 207.072 101.053 202.899 92.1253C200.863 87.8304 199.642 85.3955 195.944 82.7577C177.353 69.4332 166.327 82.1151 158.999 83.9075Z" fill="white"/>
</svg>
