<?xml version="1.0" encoding="UTF-8"?>
<!DOCTYPE svg PUBLIC "-//W3C//DTD SVG 1.1//EN" "http://www.w3.org/Graphics/SVG/1.1/DTD/svg11.dtd">
<!-- Creator: CorelDRAW X7 -->
<svg xmlns="http://www.w3.org/2000/svg" xml:space="preserve" width="4.21055in" height="2.67396in" version="1.1" style="shape-rendering:geometricPrecision; text-rendering:geometricPrecision; image-rendering:optimizeQuality; fill-rule:evenodd; clip-rule:evenodd"
viewBox="0 0 4523 2873"
 xmlns:xlink="http://www.w3.org/1999/xlink">
 <defs>
  <style type="text/css">
   <![CDATA[
    .fil0 {fill:#ffffff}
   ]]>
  </style>
 </defs>
 <g id="Layer_x0020_1">
  <metadata id="CorelCorpID_0Corel-Layer"/>
  <g id="_1062975305168">
   <path class="fil0" d="M3257 2329c173,762 733,335 925,97 253,-313 413,-787 309,-1312 -98,-497 -364,-791 -724,-967 -417,-205 -1084,-134 -1579,-138 330,927 1126,198 1594,808 429,559 175,1430 -525,1512z"/>
   <path class="fil0" d="M0 2859l568 10c95,-107 146,-264 377,-405 224,-136 390,-120 669,-132 286,-12 421,-265 232,-442 -141,-131 -562,-65 -778,-67 27,-206 181,-406 214,-711 17,-154 14,-299 -9,-444 -23,-155 -45,-261 -144,-361l-1129 2552z"/>
   <path class="fil0" d="M3129 2873c-27,-186 -874,-2014 -1063,-2426 -175,-377 -265,-431 -743,-439 39,209 853,2012 1047,2436 172,374 276,415 759,429z"/>
  </g>
 </g>
</svg>
